<?xml version="1.0" encoding="utf-8"?>
<!-- Generator: Adobe Illustrator 23.0.6, SVG Export Plug-In . SVG Version: 6.00 Build 0)  -->
<svg version="1.1" id="Layer_1" xmlns="http://www.w3.org/2000/svg" xmlns:xlink="http://www.w3.org/1999/xlink" x="0px" y="0px"
	 viewBox="0 0 32 32" style="enable-background:new 0 0 32 32;" xml:space="preserve">
<style type="text/css">
	.st0{fill:#EF5050;}
</style>
<g>
	<path class="st0" d="M16,0.1c-8.8,0-16,7.2-16,16c0,8.8,7.2,16,16,16c8.8,0,16-7.2,16-16C32,7.3,24.8,0.1,16,0.1z M16,29.6
		c-7.4,0-13.5-6.1-13.5-13.5C2.5,8.7,8.5,2.6,16,2.6c7.4,0,13.5,6.1,13.5,13.5C29.5,23.6,23.4,29.6,16,29.6z"/>
	<path class="st0" d="M23.9,8.7L20,15.9c0,0.1,0,0.2,0,0.3c0,2-1.6,3.6-3.6,3.6c-2,0-3.6-1.6-3.6-3.6c0-2,1.6-3.6,3.6-3.6
		c0.3,0,0.6,0,0.9,0.1l4-3.2c-1.4-1-3.1-1.7-5-1.7l-7.2,0l0,16.8h7.2c4.7,0,8.4-3.8,8.4-8.4c0-1.3-0.3-2.6-0.9-3.7V8.7z"/>
	<path class="st0" d="M14.3,16.2c0,1.2,1,2.1,2.1,2.1c1.2,0,2.1-1,2.1-2.1c0-1.2-1-2.1-2.1-2.1C15.2,14,14.3,15,14.3,16.2z"/>
</g>
</svg>
