<?xml version="1.0" encoding="utf-8"?>
<!-- Generator: Adobe Illustrator 23.0.6, SVG Export Plug-In . SVG Version: 6.00 Build 0)  -->
<svg version="1.1" id="Layer_1" xmlns="http://www.w3.org/2000/svg" xmlns:xlink="http://www.w3.org/1999/xlink" x="0px" y="0px"
	 viewBox="0 0 1850 500" style="enable-background:new 0 0 1850 500;" xml:space="preserve">
<style type="text/css">
	.st0{fill:#EF5050;}
	.st1{font-family:'Lato-Bold';}
	.st2{font-size:126.6779px;}
</style>
<g>
	<path class="st0" d="M251,107.2c-78.9,0-142.9,64-142.9,142.9c0,78.9,64,142.9,142.9,142.9c78.9,0,142.9-64,142.9-142.9
		C393.8,171.2,329.9,107.2,251,107.2z M251,370.6c-66.4,0-120.5-54-120.5-120.5c0-66.4,54-120.5,120.5-120.5
		c66.4,0,120.5,54,120.5,120.5C371.4,316.5,317.4,370.6,251,370.6z"/>
	<path class="st0" d="M321.7,183.5L287.4,248c0.1,0.9,0.1,1.7,0.1,2.6c0,18-14.6,32.5-32.5,32.5c-18,0-32.5-14.6-32.5-32.5
		S237.1,218,255,218c2.8,0,5.5,0.4,8,1l36-28.9c-12.5-9.3-28-14.9-44.8-14.9h-64.7l0,150.5h64.7c41.5,0,75.2-33.7,75.2-75.2
		c0-11.9-2.8-23.1-7.7-33.1V183.5z"/>
	<path class="st0" d="M236,250.6c0,10.5,8.5,19,19,19c10.5,0,19-8.5,19-19c0-10.5-8.5-19-19-19C244.5,231.5,236,240,236,250.6z"/>
</g>
<text transform="matrix(1 0 0 1 537.1836 315.0654)" class="st0 st1 st2">My DAO Dashboard</text>
</svg>
