<?xml version="1.0" standalone="no"?>
<!DOCTYPE svg PUBLIC "-//W3C//DTD SVG 20010904//EN"
 "http://www.w3.org/TR/2001/REC-SVG-20010904/DTD/svg10.dtd">
<svg version="1.0" xmlns="http://www.w3.org/2000/svg"
 width="500.000000pt" height="500.000000pt" viewBox="0 0 500.000000 500.000000"
 preserveAspectRatio="xMidYMid meet">
<metadata>
Created by potrace 1.11, written by Peter Selinger 2001-2013
</metadata>
<g transform="translate(0.000000,500.000000) scale(0.100000,-0.100000)"
fill="#000000" stroke="none">
<path d="M0 2500 l0 -2500 2500 0 2500 0 0 2500 0 2500 -2500 0 -2500 0 0
-2500z m2777 1940 c429 -35 729 -164 979 -422 275 -283 431 -646 489 -1134 20
-170 21 -547 1 -714 -47 -390 -155 -699 -344 -985 -175 -263 -430 -442 -787
-552 -213 -65 -354 -73 -1287 -73 l-778 0 0 885 0 885 -215 0 -215 0 0 175 0
175 213 2 212 3 3 883 2 882 800 0 c461 0 853 -4 927 -10z"/>
<path d="M1562 3338 l3 -653 538 -3 537 -2 -2 -173 -3 -172 -537 -3 -538 -2 0
-655 0 -655 458 0 c686 0 880 21 1098 120 329 148 541 529 600 1075 26 245 17
582 -22 800 -40 222 -141 456 -261 605 -121 151 -303 274 -463 315 -175 45
-203 47 -818 52 l-592 5 2 -654z"/>
</g>
</svg>
