<svg id="Layer_1" data-name="Layer 1" xmlns="http://www.w3.org/2000/svg" viewBox="0 0 100 100"><defs><style>.cls-1{fill:#181616;fill-rule:evenodd;}</style></defs><title>social_icons</title><path class="cls-1" d="M50.27,10A41.71,41.71,0,0,0,37.09,91.28c2.09.38,2.85-.91,2.85-2s0-3.62-.06-7.1c-11.6,2.52-14.05-5.59-14.05-5.59-1.89-4.82-4.63-6.1-4.63-6.1-3.78-2.59.29-2.53.29-2.53,4.18.29,6.39,4.29,6.39,4.29,3.72,6.38,9.76,4.54,12.13,3.47a9,9,0,0,1,2.65-5.58c-9.26-1-19-4.63-19-20.61A16.13,16.13,0,0,1,28,38.33c-.43-1-1.86-5.29.41-11,0,0,3.5-1.13,11.46,4.27a39.66,39.66,0,0,1,20.89,0c8-5.4,11.45-4.27,11.45-4.27,2.28,5.74.85,10,.42,11a16.11,16.11,0,0,1,4.28,11.19c0,16-9.75,19.55-19,20.58,1.5,1.29,2.83,3.83,2.83,7.72,0,5.58,0,10.08,0,11.45,0,1.11.75,2.41,2.87,2A41.71,41.71,0,0,0,50.27,10Z"/></svg>