<svg id="Layer_1" data-name="Layer 1" xmlns="http://www.w3.org/2000/svg" viewBox="0 0 100 100"><title>social_icons</title><path d="M31.7,91.35c36,0,55.61-29.79,55.61-55.61,0-.85,0-1.69-.06-2.53A39.75,39.75,0,0,0,97,23.09a38.78,38.78,0,0,1-11.22,3.08,19.63,19.63,0,0,0,8.59-10.81A39.25,39.25,0,0,1,82,20.1,19.55,19.55,0,0,0,48.15,33.47a19.86,19.86,0,0,0,.5,4.46A55.52,55.52,0,0,1,8.37,17.51,19.55,19.55,0,0,0,14.42,43.6a19.33,19.33,0,0,1-8.85-2.45,2.09,2.09,0,0,0,0,.25A19.55,19.55,0,0,0,21.24,60.56a19.5,19.5,0,0,1-8.82.34A19.56,19.56,0,0,0,30.67,74.47,39.16,39.16,0,0,1,6.4,82.84a39.81,39.81,0,0,1-4.66-.27,55.36,55.36,0,0,0,30,8.78"/></svg>